<?xml version="1.0" encoding="UTF-8"?>
<svg xmlns="http://www.w3.org/2000/svg" width="1024" height="1024" viewBox="0 0 1024 1024">
  <defs>
    <linearGradient id="bg" x1="0%" y1="0%" x2="0%" y2="100%">
      <stop offset="0%" style="stop-color:#1d5c5e"/>
      <stop offset="55%" style="stop-color:#2c7a7b"/>
      <stop offset="100%" style="stop-color:#234e4f"/>
    </linearGradient>
    <linearGradient id="paper" x1="0%" y1="0%" x2="0%" y2="100%">
      <stop offset="0%" style="stop-color:#ffffff"/>
      <stop offset="100%" style="stop-color:#f0f0f0"/>
    </linearGradient>
    <linearGradient id="shine" x1="0%" y1="0%" x2="0%" y2="100%">
      <stop offset="0%" style="stop-color:#ffffff;stop-opacity:0.14"/>
      <stop offset="45%" style="stop-color:#ffffff;stop-opacity:0"/>
    </linearGradient>
    <filter id="paperShadow" x="-30%" y="-30%" width="160%" height="160%">
      <feDropShadow dx="0" dy="14" stdDeviation="20" flood-opacity="0.4"/>
    </filter>
  </defs>
  <rect x="48" y="48" width="928" height="928" rx="208" ry="208" fill="url(#bg)"/>
  <rect x="48" y="48" width="928" height="928" rx="208" ry="208" fill="url(#shine)"/>
  <g filter="url(#paperShadow)">
    <rect x="236" y="200" width="552" height="624" rx="44" ry="44" fill="url(#paper)" stroke="#d8d8d8" stroke-width="5"/>
    <rect x="236" y="200" width="552" height="108" rx="44" ry="44" fill="#2c7a7b"/>
    <rect x="236" y="286" width="552" height="28" fill="#2c7a7b"/>
    <line x1="296" y1="380" x2="728" y2="380" stroke="#a8a8a8" stroke-width="13" stroke-linecap="round"/>
    <line x1="296" y1="452" x2="680" y2="452" stroke="#c0c0c0" stroke-width="11" stroke-linecap="round"/>
    <line x1="296" y1="518" x2="720" y2="518" stroke="#c0c0c0" stroke-width="11" stroke-linecap="round"/>
    <line x1="296" y1="584" x2="640" y2="584" stroke="#c0c0c0" stroke-width="11" stroke-linecap="round"/>
    <line x1="296" y1="650" x2="700" y2="650" stroke="#c0c0c0" stroke-width="11" stroke-linecap="round"/>
  </g>
</svg>
